# Blender 4.4.0
# www.blender.org
mtllib RuedaD.mtl
o Tractor
v 0.105110 -0.341668 -0.102376
v 0.106017 -0.180773 -0.000121
v 0.105227 -0.356370 -0.000120
v 0.106017 -0.180773 -0.000121
v 0.106078 -0.173184 0.052663
v 0.105227 -0.356370 -0.000120
v 0.105957 -0.173184 -0.052905
v 0.105003 -0.298753 -0.196348
v 0.105344 -0.341668 0.102136
v 0.106133 -0.151031 0.101171
v 0.105452 -0.298753 0.196107
v 0.106133 -0.151031 0.101171
v 0.106179 -0.116109 0.141473
v 0.105452 -0.298753 0.196107
v 0.104914 -0.231101 -0.274422
v 0.105902 -0.151031 -0.101413
v 0.105003 -0.298753 -0.196348
v 0.105902 -0.151031 -0.101413
v 0.105541 -0.231101 0.274181
v 0.106212 -0.071248 0.170304
v 0.105855 -0.116109 -0.141715
v 0.104850 -0.144193 -0.330274
v 0.105605 -0.144193 0.330033
v 0.106212 -0.071248 0.170304
v 0.106229 -0.020081 0.185328
v 0.105605 -0.144193 0.330033
v 0.104817 -0.045071 -0.359379
v 0.105822 -0.071248 -0.170546
v 0.104850 -0.144193 -0.330274
v 0.105822 -0.071248 -0.170546
v 0.105638 -0.045071 0.359139
v 0.106229 0.033246 0.185328
v 0.105805 -0.020081 -0.185570
v 0.104817 0.058237 -0.359379
v 0.105638 0.058236 0.359139
v 0.106229 0.033246 0.185328
v 0.106212 0.084413 0.170304
v 0.105638 0.058236 0.359139
v 0.104850 0.157359 -0.330274
v 0.105805 0.033246 -0.185570
v 0.104817 0.058237 -0.359379
v 0.105805 0.033246 -0.185570
v 0.105605 0.157359 0.330033
v 0.106179 0.129274 0.141473
v 0.105822 0.084413 -0.170546
v 0.104914 0.244267 -0.274421
v 0.105541 0.244266 0.274181
v 0.106179 0.129274 0.141473
v 0.106133 0.164197 0.101171
v 0.105541 0.244266 0.274181
v 0.105003 0.311919 -0.196347
v 0.105855 0.129274 -0.141715
v 0.104914 0.244267 -0.274421
v 0.105855 0.129274 -0.141715
v 0.105452 0.311919 0.196107
v 0.106078 0.186349 0.052663
v 0.105110 0.354834 -0.102375
v 0.105902 0.164197 -0.101413
v 0.105344 0.354834 0.102136
v 0.106078 0.186349 0.052663
v 0.106017 0.193938 -0.000121
v 0.105344 0.354834 0.102136
v 0.105227 0.369536 -0.000120
v 0.105957 0.186349 -0.052905
v 0.105110 0.354834 -0.102375
v 0.105957 0.186349 -0.052905
v 0.000805 -0.353740 -0.105801
v 0.105227 -0.356370 -0.000120
v 0.000926 -0.368952 -0.000001
v 0.105227 -0.356370 -0.000120
v 0.105344 -0.341668 0.102136
v 0.000926 -0.368952 -0.000001
v -0.103367 -0.356370 0.000118
v 0.000805 -0.353740 -0.105801
v 0.000926 -0.368952 -0.000001
v 0.105110 -0.341668 -0.102376
v 0.000694 -0.309337 -0.203030
v -0.103483 -0.341668 -0.102138
v 0.000694 -0.309337 -0.203030
v 0.001047 -0.353740 0.105799
v 0.105452 -0.298753 0.196107
v -0.103250 -0.341668 0.102374
v 0.000926 -0.368952 -0.000001
v 0.001047 -0.353740 0.105799
v 0.001159 -0.309337 0.203028
v 0.105452 -0.298753 0.196107
v 0.105541 -0.231101 0.274181
v 0.001159 -0.309337 0.203028
v -0.103142 -0.298753 0.196345
v 0.001159 -0.309337 0.203028
v 0.000602 -0.239340 -0.283811
v 0.105003 -0.298753 -0.196348
v 0.000694 -0.309337 -0.203030
v 0.105003 -0.298753 -0.196348
v -0.103591 -0.298753 -0.196110
v 0.000602 -0.239340 -0.283811
v 0.000694 -0.309337 -0.203030
v 0.001251 -0.239340 0.283809
v 0.105605 -0.144193 0.330033
v -0.103053 -0.231101 0.274419
v 0.001159 -0.309337 0.203028
v 0.001251 -0.239340 0.283809
v 0.104914 -0.231101 -0.274422
v 0.000536 -0.149420 -0.341599
v -0.103680 -0.231101 -0.274184
v 0.000536 -0.149420 -0.341599
v 0.001317 -0.149420 0.341597
v 0.105605 -0.144193 0.330033
v 0.105638 -0.045071 0.359139
v 0.001317 -0.149420 0.341597
v -0.102989 -0.144193 0.330272
v 0.001317 -0.149420 0.341597
v 0.000501 -0.046861 -0.371713
v 0.104850 -0.144193 -0.330274
v 0.000536 -0.149420 -0.341599
v 0.104850 -0.144193 -0.330274
v -0.103744 -0.144193 -0.330036
v 0.000501 -0.046861 -0.371713
v 0.000536 -0.149420 -0.341599
v 0.001351 -0.046861 0.371711
v 0.105638 0.058236 0.359139
v -0.102956 -0.045071 0.359377
v 0.001317 -0.149420 0.341597
v 0.001351 -0.046861 0.371711
v 0.104817 -0.045071 -0.359379
v 0.000501 0.060027 -0.371713
v -0.103777 -0.045071 -0.359141
v 0.000501 0.060027 -0.371713
v 0.001351 0.060027 0.371711
v 0.105638 0.058236 0.359139
v 0.105605 0.157359 0.330033
v 0.001351 0.060027 0.371711
v -0.102956 0.058236 0.359377
v 0.001351 0.060027 0.371711
v 0.000536 0.162586 -0.341599
v 0.104817 0.058237 -0.359379
v 0.000501 0.060027 -0.371713
v 0.104817 0.058237 -0.359379
v -0.103777 0.058237 -0.359141
v 0.000536 0.162586 -0.341599
v 0.000501 0.060027 -0.371713
v 0.001317 0.162585 0.341597
v 0.105541 0.244266 0.274181
v -0.102989 0.157359 0.330272
v 0.001351 0.060027 0.371711
v 0.001317 0.162585 0.341597
v 0.104850 0.157359 -0.330274
v 0.000602 0.252506 -0.283811
v -0.103744 0.157359 -0.330036
v 0.000602 0.252506 -0.283811
v 0.001251 0.252506 0.283809
v 0.105541 0.244266 0.274181
v 0.105452 0.311919 0.196107
v 0.001251 0.252506 0.283809
v -0.103053 0.244266 0.274419
v 0.001251 0.252506 0.283809
v 0.000694 0.322503 -0.203030
v 0.104914 0.244267 -0.274421
v 0.000602 0.252506 -0.283811
v 0.104914 0.244267 -0.274421
v -0.103680 0.244267 -0.274184
v 0.000694 0.322503 -0.203030
v 0.000602 0.252506 -0.283811
v 0.001159 0.322503 0.203028
v 0.105344 0.354834 0.102136
v -0.103142 0.311919 0.196345
v 0.001251 0.252506 0.283809
v 0.001159 0.322503 0.203028
v 0.105003 0.311919 -0.196347
v 0.000805 0.366906 -0.105801
v -0.103591 0.311919 -0.196109
v 0.000805 0.366906 -0.105801
v 0.001047 0.366906 0.105799
v 0.001047 0.366906 0.105799
v -0.103250 0.354834 0.102374
v 0.001047 0.366906 0.105799
v 0.000926 0.382117 -0.000001
v 0.000805 0.366906 -0.105801
v 0.105110 0.354834 -0.102375
v -0.103483 0.354834 -0.102138
v 0.000926 0.382117 -0.000001
v 0.000805 0.366906 -0.105801
v -0.103367 0.369536 0.000118
v 0.001047 0.366906 0.105799
v -0.104155 -0.180773 0.000119
v -0.103483 -0.341668 -0.102138
v -0.103367 -0.356370 0.000118
v -0.103591 -0.298753 -0.196110
v -0.104216 -0.173184 -0.052665
v -0.103591 -0.298753 -0.196110
v -0.103367 -0.356370 0.000118
v -0.104095 -0.173184 0.052903
v -0.103367 -0.356370 0.000118
v -0.103250 -0.341668 0.102374
v -0.104040 -0.151031 0.101411
v -0.103142 -0.298753 0.196345
v -0.104271 -0.151031 -0.101173
v -0.103680 -0.231101 -0.274184
v -0.103591 -0.298753 -0.196110
v -0.103142 -0.298753 0.196345
v -0.103994 -0.116109 0.141713
v -0.103142 -0.298753 0.196345
v -0.103053 -0.231101 0.274419
v -0.103744 -0.144193 -0.330036
v -0.104317 -0.116109 -0.141475
v -0.103744 -0.144193 -0.330036
v -0.103961 -0.071248 0.170544
v -0.102989 -0.144193 0.330272
v -0.104350 -0.071248 -0.170306
v -0.103777 -0.045071 -0.359141
v -0.103744 -0.144193 -0.330036
v -0.102989 -0.144193 0.330272
v -0.103943 -0.020081 0.185568
v -0.102989 -0.144193 0.330272
v -0.102956 -0.045071 0.359377
v -0.103777 0.058237 -0.359141
v -0.104368 -0.020081 -0.185330
v -0.103777 0.058237 -0.359141
v -0.103943 0.033246 0.185568
v -0.102956 0.058236 0.359377
v -0.104368 0.033246 -0.185330
v -0.103744 0.157359 -0.330036
v -0.103777 0.058237 -0.359141
v -0.102956 0.058236 0.359377
v -0.103961 0.084413 0.170544
v -0.102956 0.058236 0.359377
v -0.102989 0.157359 0.330272
v -0.103680 0.244267 -0.274184
v -0.104350 0.084413 -0.170306
v -0.103680 0.244267 -0.274184
v -0.103994 0.129274 0.141713
v -0.103053 0.244266 0.274419
v -0.104317 0.129274 -0.141475
v -0.103591 0.311919 -0.196109
v -0.103680 0.244267 -0.274184
v -0.103053 0.244266 0.274419
v -0.104040 0.164197 0.101411
v -0.103053 0.244266 0.274419
v -0.103142 0.311919 0.196345
v -0.103483 0.354834 -0.102138
v -0.104271 0.164197 -0.101173
v -0.103483 0.354834 -0.102138
v -0.104095 0.186349 0.052903
v -0.103250 0.354834 0.102374
v -0.104216 0.186349 -0.052665
v -0.103250 0.354834 0.102374
v -0.104155 0.193938 0.000119
v -0.104271 -0.151031 -0.101173
v -0.104350 -0.071248 -0.170306
v -0.104368 0.033246 -0.185330
v -0.103943 0.033246 0.185568
v -0.104317 0.129274 -0.141475
v -0.104216 0.186349 -0.052665
v -0.103994 0.129274 0.141713
v -0.104095 0.186349 0.052903
v -0.104155 -0.180773 0.000119
v -0.104040 -0.151031 0.101411
v -0.103961 -0.071248 0.170544
v 0.106017 -0.180773 -0.000121
v 0.079502 0.006583 -0.000091
v 0.106078 -0.173184 0.052663
v 0.106133 -0.151031 0.101171
v 0.106179 -0.116109 0.141473
v 0.106212 -0.071248 0.170304
v 0.106229 -0.020081 0.185328
v 0.105822 0.084413 -0.170546
v 0.079502 0.006583 -0.000091
v 0.105805 0.033246 -0.185570
v 0.105957 -0.173184 -0.052905
v 0.106017 -0.180773 -0.000121
v 0.106229 0.033246 0.185328
v 0.106212 0.084413 0.170304
v 0.105855 0.129274 -0.141715
v 0.106179 0.129274 0.141473
v 0.105957 0.186349 -0.052905
v 0.105902 0.164197 -0.101413
v 0.105902 -0.151031 -0.101413
v 0.105855 -0.116109 -0.141715
v 0.105822 -0.071248 -0.170546
v 0.105805 -0.020081 -0.185570
v 0.106133 0.164197 0.101171
v 0.106078 0.186349 0.052663
v 0.106017 0.193938 -0.000121
v 0.106017 0.193938 -0.000121
v -0.104216 -0.173184 -0.052665
v -0.104155 -0.180773 0.000119
v -0.077641 0.006583 0.000089
v -0.104271 -0.151031 -0.101173
v -0.104317 -0.116109 -0.141475
v -0.104350 -0.071248 -0.170306
v -0.104368 -0.020081 -0.185330
v -0.104368 0.033246 -0.185330
v -0.104317 0.129274 -0.141475
v -0.104350 0.084413 -0.170306
v -0.104271 0.164197 -0.101173
v -0.104216 0.186349 -0.052665
v -0.103943 -0.020081 0.185568
v -0.103943 0.033246 0.185568
v -0.077641 0.006583 0.000089
v -0.103961 0.084413 0.170544
v -0.103994 0.129274 0.141713
v -0.104040 0.164197 0.101411
v -0.104095 0.186349 0.052903
v -0.104155 0.193938 0.000119
v -0.104155 -0.180773 0.000119
v -0.104095 -0.173184 0.052903
v -0.104040 -0.151031 0.101411
v -0.103994 -0.116109 0.141713
v -0.103961 -0.071248 0.170544
v -0.104155 0.193938 0.000119
vn 1.0000 -0.0043 -0.0024
vn 1.0000 -0.0045 -0.0018
vn 1.0000 -0.0045 -0.0005
vn 1.0000 -0.0043 0.0001
vn 1.0000 -0.0041 -0.0030
vn 1.0000 -0.0041 0.0007
vn 1.0000 -0.0034 0.0018
vn 1.0000 -0.0029 0.0023
vn 1.0000 -0.0029 -0.0045
vn 1.0000 -0.0034 -0.0041
vn 1.0000 -0.0025 0.0027
vn 1.0000 -0.0025 -0.0050
vn 1.0000 -0.0013 0.0032
vn 1.0000 -0.0006 0.0033
vn 1.0000 -0.0006 -0.0056
vn 1.0000 -0.0013 -0.0055
vn 1.0000 -0.0000 0.0034
vn 1.0000 -0.0000 -0.0057
vn 1.0000 0.0013 0.0032
vn 1.0000 0.0019 0.0029
vn 1.0000 0.0019 -0.0052
vn 1.0000 0.0013 -0.0055
vn 1.0000 0.0022 0.0028
vn 1.0000 0.0025 0.0027
vn 1.0000 0.0025 -0.0050
vn 1.0000 0.0034 0.0018
vn 1.0000 0.0038 0.0013
vn 1.0000 0.0038 -0.0036
vn 1.0000 0.0034 -0.0041
vn 1.0000 0.0041 0.0007
vn 1.0000 0.0041 -0.0030
vn 1.0000 0.0045 -0.0005
vn 1.0000 0.0045 -0.0011
vn 0.9703 -0.2418 0.0004
vn 0.9991 -0.0192 -0.0370
vn 1.0000 0.0045 -0.0018
vn 0.9834 0.0285 0.1794
vn 0.1194 -0.9649 -0.2339
vn 0.1184 -0.9828 -0.1414
vn 0.1187 -0.9828 0.1412
vn 0.1199 -0.9649 0.2337
vn -0.1187 -0.9828 -0.1412
vn -0.1199 -0.9649 -0.2336
vn 0.1192 -0.9381 -0.3251
vn 0.1181 -0.9032 -0.4126
vn -0.1200 -0.9381 -0.3248
vn -0.1190 -0.9032 -0.4123
vn 0.1200 -0.9381 0.3249
vn 0.1190 -0.9032 0.4123
vn -0.1194 -0.9649 0.2339
vn -0.1184 -0.9828 0.1414
vn -0.1193 -0.9381 0.3251
vn 0.1193 -0.7504 0.6501
vn 0.1204 -0.6853 0.7182
vn -0.1181 -0.9032 0.4126
vn 0.1188 -0.6853 -0.7185
vn 0.1178 -0.7504 -0.6504
vn -0.1193 -0.7504 -0.6501
vn -0.1205 -0.6853 -0.7182
vn 0.1205 -0.6135 0.7805
vn 0.1195 -0.5368 0.8352
vn -0.1188 -0.6853 0.7185
vn -0.1178 -0.7504 0.6504
vn -0.1187 -0.6135 0.7807
vn 0.1187 -0.6135 -0.7807
vn 0.1176 -0.5368 -0.8355
vn -0.1205 -0.6135 -0.7804
vn -0.1195 -0.5368 -0.8352
vn 0.1196 -0.2798 0.9526
vn 0.1207 -0.1882 0.9747
vn -0.1176 -0.5368 0.8355
vn 0.1185 -0.1882 -0.9750
vn 0.1175 -0.2797 -0.9529
vn -0.1196 -0.2797 -0.9526
vn -0.1207 -0.1882 -0.9747
vn 0.1207 -0.0941 0.9882
vn 0.1197 -0.0000 0.9928
vn -0.1185 -0.1882 0.9750
vn -0.1175 -0.2797 0.9529
vn -0.1185 -0.0941 0.9885
vn 0.1185 -0.0941 -0.9885
vn 0.1174 -0.0000 -0.9931
vn -0.1208 -0.0941 -0.9882
vn -0.1197 -0.0000 -0.9928
vn 0.1196 0.2798 0.9526
vn 0.1207 0.3688 0.9216
vn -0.1174 -0.0000 0.9931
vn 0.1186 0.3687 -0.9219
vn 0.1175 0.2797 -0.9529
vn -0.1196 0.2797 -0.9526
vn -0.1207 0.3687 -0.9217
vn 0.1206 0.4552 0.8822
vn 0.1195 0.5368 0.8352
vn -0.1186 0.3687 0.9220
vn -0.1175 0.2797 0.9529
vn -0.1186 0.4552 0.8825
vn 0.1186 0.4552 -0.8825
vn 0.1176 0.5368 -0.8355
vn -0.1206 0.4552 -0.8822
vn -0.1195 0.5368 -0.8352
vn 0.1193 0.7504 0.6501
vn 0.1203 0.8085 0.5760
vn -0.1176 0.5368 0.8355
vn 0.1190 0.8086 -0.5763
vn 0.1178 0.7504 -0.6504
vn -0.1193 0.7504 -0.6501
vn -0.1203 0.8086 -0.5759
vn 0.1202 0.8600 0.4960
vn 0.1190 0.9032 0.4123
vn -0.1190 0.8086 0.5762
vn -0.1178 0.7504 0.6504
vn -0.1191 0.8599 0.4963
vn 0.1191 0.8599 -0.4963
vn 0.1181 0.9032 -0.4126
vn -0.1202 0.8599 -0.4960
vn -0.1190 0.9032 -0.4123
vn 0.1823 0.9783 -0.0986
vn 0.0990 0.9943 0.0405
vn 0.1187 0.9828 0.1412
vn -0.1181 0.9032 0.4126
vn 0.1196 0.9917 -0.0477
vn -0.0651 0.9876 -0.1429
vn 0.1184 0.9828 -0.1414
vn 0.0647 0.9876 -0.1431
vn -0.1197 0.9917 -0.0474
vn -0.1187 0.9828 -0.1412
vn -0.0880 0.9956 -0.0325
vn -0.1184 0.9828 0.1414
vn -1.0000 -0.0045 0.0005
vn -1.0000 -0.0043 -0.0001
vn -1.0000 -0.0041 -0.0007
vn -1.0000 -0.0043 0.0024
vn -1.0000 -0.0045 0.0018
vn -1.0000 -0.0041 0.0030
vn -1.0000 -0.0034 -0.0018
vn -1.0000 -0.0029 -0.0023
vn -1.0000 -0.0029 0.0045
vn -1.0000 -0.0034 0.0041
vn -1.0000 -0.0025 -0.0027
vn -1.0000 -0.0025 0.0050
vn -1.0000 -0.0013 -0.0032
vn -1.0000 -0.0006 -0.0033
vn -1.0000 -0.0006 0.0056
vn -1.0000 -0.0013 0.0055
vn -1.0000 -0.0000 -0.0034
vn -1.0000 -0.0000 0.0057
vn -1.0000 0.0013 -0.0032
vn -1.0000 0.0019 -0.0029
vn -1.0000 0.0016 0.0054
vn -1.0000 0.0013 0.0055
vn -1.0000 0.0019 0.0052
vn -1.0000 0.0025 -0.0027
vn -1.0000 0.0025 0.0050
vn -1.0000 0.0034 -0.0018
vn -1.0000 0.0038 -0.0013
vn -1.0000 0.0038 0.0036
vn -1.0000 0.0034 0.0041
vn -1.0000 0.0041 -0.0007
vn -1.0000 0.0041 0.0030
vn -1.0000 0.0045 0.0005
vn -0.9992 -0.0280 0.0294
vn -0.9830 0.0285 0.1816
vn -0.1825 0.9783 -0.0981
vn -1.0000 0.0045 0.0011
vn -0.9703 -0.2418 0.0027
vn -1.0000 0.0041 -0.0008
vn -1.0000 0.0045 0.0018
vn 0.9899 0.1401 -0.0213
vn 0.9958 -0.0000 -0.0921
vn 0.9901 0.1345 -0.0406
vn 0.9900 0.1179 -0.0769
vn 0.9900 0.0918 -0.1070
vn 0.9900 0.0582 -0.1286
vn 0.9900 0.0199 -0.1398
vn 0.9903 -0.0582 0.1263
vn 0.9960 -0.0000 0.0898
vn 0.9903 -0.0199 0.1376
vn 0.9902 0.1344 0.0384
vn 0.9900 0.1401 0.0190
vn 0.9900 -0.0199 -0.1398
vn 0.9900 -0.0582 -0.1286
vn 0.9903 -0.0918 0.1048
vn 0.9900 -0.0918 -0.1070
vn 0.9902 -0.1345 0.0384
vn 0.9902 -0.1179 0.0746
vn 0.9902 0.1179 0.0746
vn 0.9903 0.0918 0.1048
vn 0.9903 0.0582 0.1263
vn 0.9903 0.0199 0.1376
vn 0.9900 -0.1179 -0.0769
vn 0.9901 -0.1345 -0.0406
vn 0.9899 -0.1401 -0.0213
vn 0.9900 -0.1401 0.0190
vn -0.9901 0.1344 0.0406
vn -0.9899 0.1401 0.0213
vn -0.9958 -0.0000 0.0921
vn -0.9900 0.1179 0.0769
vn -0.9900 0.0918 0.1070
vn -0.9900 0.0582 0.1286
vn -0.9900 0.0199 0.1398
vn -0.9900 -0.0199 0.1398
vn -0.9900 -0.0918 0.1070
vn -0.9900 -0.0582 0.1286
vn -0.9900 -0.1179 0.0769
vn -0.9901 -0.1344 0.0406
vn -0.9903 0.0199 -0.1376
vn -0.9903 -0.0199 -0.1376
vn -0.9960 -0.0000 -0.0898
vn -0.9903 -0.0582 -0.1263
vn -0.9903 -0.0918 -0.1048
vn -0.9902 -0.1179 -0.0746
vn -0.9902 -0.1344 -0.0384
vn -0.9900 -0.1401 -0.0190
vn -0.9900 0.1401 -0.0190
vn -0.9902 0.1344 -0.0384
vn -0.9902 0.1179 -0.0746
vn -0.9903 0.0918 -0.1048
vn -0.9903 0.0582 -0.1263
vn -0.9899 -0.1401 0.0213
vt 0.594868 0.499999
vt 0.000000 0.000000
vt 0.594868 0.000000
vt 0.000000 1.000000
vt 0.000000 0.499999
vt 0.594868 1.000000
vt 0.976475 0.499999
vt 0.976475 0.000000
vt 0.976475 1.000000
vt 0.010089 0.010089
vt 0.010089 0.500000
vt 0.288975 0.029934
vt 0.545267 0.087860
vt 0.758201 0.179177
vt 0.910530 0.296484
vt 0.989910 0.430279
vt 0.910532 0.703517
vt 0.989911 0.569722
vt 0.758203 0.820823
vt 0.288976 0.970066
vt 0.545268 0.912140
vt 0.010089 0.989911
vt 0.287961 0.024713
vt 0.007736 0.004649
vt 0.007737 0.500000
vt 0.545485 0.083283
vt 0.759442 0.175614
vt 0.912503 0.294223
vt 0.992264 0.429504
vt 0.992264 0.570496
vt 0.759442 0.824386
vt 0.912503 0.705777
vt 0.545485 0.916716
vt 0.287962 0.975287
vt 0.007736 0.995351
s 1
usemtl _willi_vTireA_m.001
f 1/1/1 2/2/2 3/3/2
f 4/4/3 5/5/4 6/6/3
f 7/5/1 2/2/2 1/1/1
f 8/6/5 7/5/1 1/1/1
f 6/6/3 5/5/4 9/1/4
f 5/5/4 10/2/6 9/1/4
f 9/1/4 10/2/6 11/3/6
f 12/4/7 13/5/8 14/6/7
f 15/1/9 16/2/10 17/3/10
f 18/4/5 7/5/1 8/6/5
f 14/6/7 13/5/8 19/1/8
f 13/5/8 20/2/11 19/1/8
f 21/5/9 16/2/10 15/1/9
f 22/6/12 21/5/9 15/1/9
f 19/1/8 20/2/11 23/3/11
f 24/4/13 25/5/14 26/6/13
f 27/1/15 28/2/16 29/3/16
f 30/4/12 21/5/9 22/6/12
f 26/6/13 25/5/14 31/1/14
f 25/5/14 32/2/17 31/1/14
f 33/5/15 28/2/16 27/1/15
f 34/6/18 33/5/15 27/1/15
f 31/1/14 32/2/17 35/3/17
f 36/4/19 37/5/20 38/6/19
f 39/1/21 40/2/22 41/3/22
f 42/4/18 33/5/15 34/6/18
f 38/6/19 37/5/20 43/1/23
f 37/5/20 44/2/24 43/1/23
f 45/5/21 40/2/22 39/1/21
f 46/6/25 45/5/21 39/1/21
f 43/1/23 44/2/24 47/3/24
f 48/4/26 49/5/27 50/6/26
f 51/1/28 52/2/29 53/3/29
f 54/4/25 45/5/21 46/6/25
f 50/6/26 49/5/27 55/1/27
f 49/5/27 56/2/30 55/1/27
f 57/6/31 58/5/28 51/1/28
f 58/5/28 52/2/29 51/1/28
f 55/1/27 56/2/30 59/3/30
f 60/4/32 61/5/33 62/6/34
f 63/1/35 64/2/36 65/3/37
f 66/4/31 58/5/28 57/6/31
f 61/5/33 64/2/36 63/1/35
f 62/6/34 61/5/33 63/1/35
f 67/7/38 68/3/39 69/8/39
f 70/6/40 71/1/41 72/9/40
f 73/3/42 74/7/43 75/8/42
f 76/1/44 68/3/39 67/7/38
f 77/9/45 76/1/44 67/7/38
f 78/1/46 79/9/47 74/7/43
f 72/9/40 71/1/41 80/7/48
f 71/1/41 81/3/49 80/7/48
f 82/1/50 83/9/51 84/7/52
f 80/7/48 81/3/49 85/8/49
f 86/6/53 87/1/54 88/9/53
f 89/3/55 84/7/52 90/8/55
f 91/7/56 92/3/57 93/8/57
f 94/6/45 76/1/44 77/9/45
f 95/3/58 96/7/59 97/8/58
f 88/9/53 87/1/54 98/7/60
f 87/1/54 99/3/61 98/7/60
f 100/1/62 101/9/63 102/7/64
f 103/1/65 92/3/57 91/7/56
f 104/9/66 103/1/65 91/7/56
f 105/1/67 106/9/68 96/7/59
f 98/7/60 99/3/61 107/8/61
f 108/6/69 109/1/70 110/9/69
f 111/3/71 102/7/64 112/8/71
f 113/7/72 114/3/73 115/8/73
f 116/6/66 103/1/65 104/9/66
f 117/3/74 118/7/75 119/8/74
f 110/9/69 109/1/70 120/7/76
f 109/1/70 121/3/77 120/7/76
f 122/1/78 123/9/79 124/7/80
f 125/1/81 114/3/73 113/7/72
f 126/9/82 125/1/81 113/7/72
f 127/1/83 128/9/84 118/7/75
f 120/7/76 121/3/77 129/8/77
f 130/6/85 131/1/86 132/9/85
f 133/3/87 124/7/80 134/8/87
f 135/7/88 136/3/89 137/8/89
f 138/6/82 125/1/81 126/9/82
f 139/3/90 140/7/91 141/8/90
f 132/9/85 131/1/86 142/7/92
f 131/1/86 143/3/93 142/7/92
f 144/1/94 145/9/95 146/7/96
f 147/1/97 136/3/89 135/7/88
f 148/9/98 147/1/97 135/7/88
f 149/1/99 150/9/100 140/7/91
f 142/7/92 143/3/93 151/8/93
f 152/6/101 153/1/102 154/9/101
f 155/3/103 146/7/96 156/8/103
f 157/7/104 158/3/105 159/8/105
f 160/6/98 147/1/97 148/9/98
f 161/3/106 162/7/107 163/8/106
f 154/9/101 153/1/102 164/7/108
f 153/1/102 165/3/109 164/7/108
f 166/1/110 167/9/111 168/7/112
f 169/1/113 158/3/105 157/7/104
f 170/9/114 169/1/113 157/7/104
f 171/1/115 172/9/116 162/7/107
f 164/7/108 165/3/109 173/8/109
f 62/6/117 63/1/118 174/9/119
f 175/3/120 168/7/112 176/8/120
f 177/7/121 65/3/122 178/8/123
f 179/6/114 169/1/113 170/9/114
f 180/3/124 181/7/125 182/8/126
f 63/1/118 65/3/122 177/7/121
f 174/9/119 63/1/118 177/7/121
f 183/1/127 184/9/128 181/7/125
f 78/1/46 74/7/43 73/3/42
f 185/2/129 186/1/130 187/3/129
f 188/6/47 79/9/47 78/1/46
f 189/5/130 190/6/131 186/1/130
f 191/6/51 83/9/51 82/1/50
f 192/5/132 193/6/133 194/1/132
f 82/1/50 84/7/52 89/3/55
f 195/2/134 194/1/132 196/3/134
f 105/1/67 96/7/59 95/3/58
f 197/2/135 198/1/136 199/3/135
f 200/6/63 101/9/63 100/1/62
f 201/5/137 202/6/138 203/1/137
f 204/6/68 106/9/68 105/1/67
f 205/5/136 206/6/139 198/1/136
f 100/1/62 102/7/64 111/3/71
f 207/2/140 203/1/137 208/3/140
f 127/1/83 118/7/75 117/3/74
f 209/2/141 210/1/142 211/3/141
f 212/6/79 123/9/79 122/1/78
f 213/5/143 214/6/144 215/1/143
f 216/6/84 128/9/84 127/1/83
f 217/5/142 218/6/145 210/1/142
f 122/1/78 124/7/80 133/3/87
f 219/2/146 215/1/143 220/3/146
f 149/1/99 140/7/91 139/3/90
f 221/2/147 222/1/148 223/3/147
f 224/6/95 145/9/95 144/1/94
f 225/5/149 226/6/150 227/1/151
f 228/6/100 150/9/100 149/1/99
f 229/5/148 230/6/152 222/1/148
f 144/1/94 146/7/96 155/3/103
f 231/2/153 227/1/151 232/3/153
f 171/1/115 162/7/107 161/3/106
f 233/2/154 234/1/155 235/3/154
f 236/6/111 167/9/111 166/1/110
f 237/5/156 238/6/157 239/1/156
f 240/6/116 172/9/116 171/1/115
f 241/5/155 242/6/158 234/1/155
f 166/1/110 168/7/112 175/3/120
f 243/2/159 239/1/156 244/3/159
f 183/1/127 181/7/125 180/3/124
f 245/2/160 183/1/161 180/3/162
f 246/6/163 184/9/128 183/1/127
f 247/5/164 246/6/165 183/1/161
f 189/5/130 186/1/130 185/2/129
f 248/4/131 190/6/131 189/5/130
f 205/5/136 198/1/136 197/2/135
f 249/4/139 206/6/139 205/5/136
f 217/5/142 210/1/142 209/2/141
f 250/4/145 218/6/145 217/5/142
f 213/5/143 215/1/143 219/2/146
f 251/4/150 226/6/150 225/5/149
f 252/4/152 230/6/152 229/5/148
f 225/5/149 227/1/151 231/2/153
f 241/5/155 234/1/155 233/2/154
f 253/4/166 242/6/158 241/5/155
f 254/4/157 238/6/157 237/5/156
f 247/5/164 183/1/161 245/2/160
f 237/5/156 239/1/156 243/2/159
f 255/4/167 246/6/165 247/5/164
f 256/4/133 193/6/133 192/5/132
f 192/5/132 194/1/132 195/2/134
f 257/4/138 202/6/138 201/5/137
f 201/5/137 203/1/137 207/2/140
f 258/4/144 214/6/144 213/5/143
f 229/5/148 222/1/148 221/2/147
usemtl _willi_vWheel_m.001
f 259/10/168 260/11/169 261/12/170
f 261/12/170 260/11/169 262/13/171
f 262/13/171 260/11/169 263/14/172
f 263/14/172 260/11/169 264/15/173
f 264/15/173 260/11/169 265/16/174
f 266/17/175 267/11/176 268/18/177
f 269/12/178 267/11/176 270/10/179
f 271/18/180 260/11/169 272/17/181
f 273/19/182 267/11/176 266/17/175
f 272/17/181 260/11/169 274/19/183
f 275/20/184 267/11/176 276/21/185
f 277/13/186 267/11/176 269/12/178
f 278/14/187 267/11/176 277/13/186
f 279/15/188 267/11/176 278/14/187
f 280/16/189 267/11/176 279/15/188
f 268/18/177 267/11/176 280/16/189
f 265/16/174 260/11/169 271/18/180
f 276/21/185 267/11/176 273/19/182
f 274/19/183 260/11/169 281/21/190
f 281/21/190 260/11/169 282/20/191
f 282/20/191 260/11/169 283/22/192
f 275/20/184 284/22/193 267/11/176
f 285/23/194 286/24/195 287/25/196
f 288/26/197 285/23/194 287/25/196
f 289/27/198 288/26/197 287/25/196
f 290/28/199 289/27/198 287/25/196
f 291/29/200 290/28/199 287/25/196
f 292/30/201 291/29/200 287/25/196
f 293/31/202 294/32/203 287/25/196
f 295/33/204 293/31/202 287/25/196
f 296/34/205 295/33/204 287/25/196
f 294/32/203 292/30/201 287/25/196
f 297/29/206 298/30/207 299/25/208
f 298/30/207 300/32/209 299/25/208
f 300/32/209 301/31/210 299/25/208
f 301/31/210 302/33/211 299/25/208
f 302/33/211 303/34/212 299/25/208
f 303/34/212 304/35/213 299/25/208
f 305/24/214 306/23/215 299/25/208
f 306/23/215 307/26/216 299/25/208
f 307/26/216 308/27/217 299/25/208
f 308/27/217 309/28/218 299/25/208
f 309/28/218 297/29/206 299/25/208
f 287/25/196 310/35/219 296/34/205
